<?xml version="1.0" standalone="no"?>
<!DOCTYPE svg PUBLIC "-//W3C//DTD SVG 20010904//EN"
 "http://www.w3.org/TR/2001/REC-SVG-20010904/DTD/svg10.dtd">
<svg version="1.0" xmlns="http://www.w3.org/2000/svg"
 width="550.000000pt" height="550.000000pt" viewBox="0 0 550.000000 550.000000"
 preserveAspectRatio="xMidYMid meet">
<metadata>
Created by potrace 1.11, written by Peter Selinger 2001-2013
</metadata>
<g transform="translate(0.000000,550.000000) scale(0.100000,-0.100000)"
fill="#000000" stroke="none">
<path d="M2074 4463 c-4 -10 -8 -20 -9 -23 -9 -34 -18 -49 -27 -44 -6 4 -8 2
-4 -4 3 -6 2 -21 -3 -34 -5 -12 -8 -25 -8 -28 0 -3 -6 -16 -13 -30 -8 -14 -15
-27 -15 -30 -1 -16 -90 -216 -97 -218 -4 -2 -5 -8 -2 -13 3 -6 2 -15 -3 -22
-6 -7 -16 -28 -23 -47 -12 -34 -24 -62 -54 -132 -7 -18 -31 -76 -52 -128 -21
-52 -42 -98 -47 -101 -5 -3 -8 -9 -8 -13 2 -22 -56 -156 -64 -148 -5 4 -5 2
-2 -4 4 -7 0 -25 -8 -40 -8 -16 -15 -33 -15 -37 0 -5 -6 -23 -14 -40 -15 -33
-48 -108 -51 -117 -1 -3 -5 -14 -10 -25 -4 -11 -14 -35 -21 -53 -9 -22 -18
-31 -26 -26 -10 5 -10 4 -1 -6 9 -10 9 -18 0 -34 -6 -12 -12 -23 -12 -26 -1
-3 -9 -22 -18 -44 -9 -21 -17 -41 -17 -45 -1 -3 -9 -24 -20 -46 -11 -22 -19
-46 -20 -53 0 -7 -5 -10 -12 -6 -7 4 -8 3 -4 -4 4 -6 -3 -33 -16 -59 -12 -26
-22 -50 -23 -53 -5 -24 -31 -80 -38 -80 -4 0 -6 -4 -3 -8 3 -5 -2 -21 -10 -36
-7 -16 -14 -33 -14 -38 0 -5 -12 -35 -26 -66 -14 -31 -30 -68 -36 -82 -5 -14
-16 -38 -24 -55 -7 -16 -30 -70 -50 -120 -19 -49 -41 -101 -46 -115 -6 -14
-12 -29 -14 -35 -1 -5 -13 -32 -25 -60 -13 -27 -24 -52 -24 -55 -4 -22 -31
-80 -37 -80 -4 0 -7 -3 -6 -7 3 -14 -15 -68 -34 -101 -10 -18 -18 -39 -18 -47
0 -8 -5 -15 -11 -15 -5 0 -8 -4 -4 -9 3 -5 -1 -16 -9 -24 -8 -8 -13 -17 -10
-19 8 -9 -32 -88 -41 -80 -5 4 -5 1 -1 -6 4 -7 -1 -32 -13 -56 -11 -24 -23
-56 -27 -70 -3 -14 -9 -26 -13 -26 -4 0 -8 -6 -8 -14 0 -19 -24 -76 -32 -76
-3 0 -7 -12 -8 -26 0 -15 -6 -30 -13 -34 -6 -4 -11 -9 -10 -11 1 -2 -3 -17 -9
-32 -6 -16 -11 -32 -11 -36 0 -5 -7 -14 -15 -21 -8 -7 -12 -16 -10 -21 3 -4 1
-16 -5 -26 -17 -31 -49 -121 -44 -126 3 -2 23 -2 46 0 29 4 39 2 33 -7 -5 -8
0 -7 14 2 17 11 25 11 42 0 12 -8 19 -9 16 -5 -3 5 30 9 74 9 56 0 78 -3 75
-11 -2 -6 2 -12 9 -12 7 0 11 6 9 12 -4 8 9 12 40 12 26 0 43 -4 40 -9 -4 -6
3 -5 14 1 25 13 68 8 64 -9 -1 -6 2 -9 8 -5 6 3 8 11 5 16 -5 8 7 13 26 11 3
-1 6 6 7 14 1 8 3 21 4 29 1 8 5 15 10 15 5 0 6 4 3 10 -3 5 -1 10 6 10 7 0
10 3 6 6 -8 8 21 83 42 108 9 11 10 16 4 12 -9 -5 -11 -2 -7 8 3 9 9 14 13 12
3 -2 7 6 7 19 1 12 9 37 17 56 9 19 18 44 22 57 4 12 11 19 17 16 6 -4 8 -2 5
4 -9 13 2 44 13 37 5 -3 6 4 3 15 -3 11 2 31 11 45 9 14 13 25 9 25 -4 0 2 7
13 16 10 8 14 13 7 9 -9 -4 -10 1 -2 25 6 16 14 30 18 30 4 0 7 8 8 19 1 10
10 38 21 62 11 24 26 61 32 82 7 22 16 34 22 31 7 -4 8 -2 4 5 -10 16 3 53 16
45 6 -4 8 -2 4 4 -3 6 -1 23 6 39 6 15 11 31 10 35 -1 5 3 8 10 8 6 0 8 3 5 7
-4 3 1 15 10 26 13 15 14 18 3 12 -12 -7 -13 -6 -4 6 6 8 17 31 24 52 6 20 15
35 20 32 5 -3 12 0 16 6 4 8 3 9 -4 5 -13 -8 -17 6 -5 18 4 3 8 16 10 27 2 11
9 30 15 42 7 12 11 25 10 29 -1 5 2 8 8 8 6 0 9 3 8 8 -3 13 25 92 33 92 5 0
6 7 3 15 -4 8 -1 15 6 15 6 0 8 5 5 10 -3 6 -2 10 2 10 5 0 9 10 10 22 1 11 7
24 13 28 7 4 11 10 11 14 -3 18 0 32 8 45 8 13 12 13 28 1 15 -12 15 -11 -2 9
-14 16 -16 25 -8 28 7 2 9 11 6 19 -3 8 0 14 7 14 6 0 8 5 5 10 -3 6 -1 10 6
10 7 0 10 3 6 6 -8 9 24 86 42 102 10 8 10 11 2 6 -7 -4 -12 -3 -10 2 2 5 19
48 38 97 18 48 37 87 40 87 4 0 7 8 8 19 1 10 9 36 19 57 9 21 18 46 20 54 2
8 7 16 13 18 5 2 7 10 4 18 -3 9 2 14 13 15 11 0 14 3 8 5 -9 4 -9 13 -1 34 6
17 15 30 19 30 4 0 5 7 2 15 -4 8 -1 15 5 15 6 0 10 3 10 8 -1 4 0 9 1 12 1 3
3 14 5 25 2 11 8 21 14 23 5 2 7 10 4 19 -5 12 -3 14 7 8 9 -5 11 -4 6 3 -4 6
0 24 8 39 l14 28 15 -35 c10 -25 11 -39 4 -48 -7 -9 -7 -12 2 -10 9 2 46 -69
58 -112 6 -22 66 -173 89 -225 7 -16 10 -33 8 -37 -3 -4 0 -8 5 -8 6 0 11 -5
11 -11 0 -5 -4 -8 -8 -5 -5 3 -9 -1 -9 -8 0 -8 7 -12 14 -9 8 3 13 2 12 -3 -2
-5 5 -26 14 -48 9 -21 17 -44 17 -52 0 -7 5 -16 10 -19 15 -9 12 -27 -2 -19
-7 4 -3 -3 10 -15 24 -24 29 -37 10 -25 -7 5 -2 -5 10 -21 17 -22 20 -30 10
-37 -10 -6 -10 -8 -1 -8 19 0 38 -41 23 -50 -8 -5 -7 -9 5 -14 9 -3 13 -10 10
-16 -3 -5 -1 -10 4 -10 6 0 11 -6 11 -14 0 -7 7 -26 14 -42 8 -15 13 -31 10
-36 -3 -4 -1 -8 3 -8 5 0 15 -17 22 -37 7 -21 16 -47 21 -58 53 -123 60 -148
40 -160 -5 -3 -10 -11 -10 -18 0 -6 6 -2 14 9 14 19 15 19 21 -1 4 -11 13 -34
21 -52 8 -17 14 -35 13 -40 -1 -4 8 -29 20 -56 12 -26 19 -52 16 -57 -3 -6 -2
-10 3 -10 6 0 17 -20 25 -45 9 -25 13 -45 11 -45 -3 0 2 -7 11 -16 9 -10 14
-25 12 -35 -3 -11 -1 -19 5 -19 5 0 6 -4 3 -10 -3 -5 -1 -10 5 -10 6 0 9 -4 6
-9 -4 -5 -2 -11 4 -13 6 -2 11 -17 13 -35 1 -17 5 -29 10 -26 4 2 8 -1 8 -6 2
-14 4 -21 13 -46 17 -45 19 -50 20 -55 1 -3 7 -15 14 -28 7 -12 10 -27 7 -32
-3 -6 -1 -10 5 -10 6 0 9 -4 6 -9 -4 -5 -2 -11 4 -13 5 -1 11 -12 13 -23 2
-11 7 -28 11 -37 4 -9 4 -22 0 -29 -4 -7 -3 -9 3 -6 11 7 43 -66 46 -102 1
-12 6 -21 11 -21 5 0 7 -3 3 -6 -3 -4 0 -13 8 -21 18 -18 19 -33 3 -33 -7 0
-5 -5 5 -11 9 -6 15 -14 12 -20 -4 -5 -2 -9 3 -9 16 0 24 -51 10 -68 -10 -14
-10 -15 1 -6 14 13 54 7 46 -6 -3 -5 -1 -12 5 -15 6 -4 10 -3 9 2 -4 22 2 25
16 7 13 -16 14 -16 9 -1 -8 22 5 22 21 0 9 -13 14 -13 20 -3 5 9 4 11 -3 6 -7
-4 -12 -3 -12 2 0 5 25 9 55 9 39 0 54 -4 51 -12 -2 -6 2 -12 9 -12 7 0 11 5
9 12 -3 6 8 12 26 13 22 2 29 -1 24 -9 -5 -8 -3 -9 6 -4 23 14 82 16 98 3 9
-7 13 -8 9 -2 -4 7 29 10 104 11 60 0 112 2 114 5 3 2 -9 37 -26 76 -16 40
-27 78 -23 84 4 6 3 8 -3 5 -11 -7 -48 77 -45 106 0 9 -3 15 -8 12 -11 -7 -32
54 -23 68 3 5 1 7 -5 3 -13 -8 -26 29 -16 45 4 7 3 9 -3 6 -12 -8 -26 20 -17
34 3 5 1 9 -3 9 -7 0 -73 144 -79 173 -1 4 -3 10 -4 15 -1 4 -2 10 -1 15 0 4
-3 7 -9 7 -5 0 -10 9 -10 20 0 11 -4 20 -10 20 -5 0 -10 7 -10 15 0 8 -20 62
-45 119 -25 58 -45 110 -45 114 0 5 -6 22 -14 38 -48 101 -106 244 -98 244 4
0 2 4 -4 8 -12 8 -100 222 -98 239 1 7 -2 10 -7 7 -8 -5 -13 12 -12 43 1 7 -3
11 -7 8 -7 -4 -37 74 -32 88 1 4 -1 7 -6 7 -4 0 -13 15 -20 33 -7 17 -20 47
-28 65 -8 18 -11 38 -8 44 4 7 2 8 -4 4 -7 -4 -13 -2 -13 3 -2 18 -5 24 -21
62 -9 20 -19 47 -23 60 -4 13 -12 30 -17 36 -6 7 -8 20 -4 28 3 9 2 14 -3 11
-5 -3 -15 9 -22 27 -6 17 -13 34 -14 37 -8 15 -17 50 -15 56 1 4 -2 10 -7 13
-14 10 -95 206 -96 233 -1 9 -3 15 -6 12 -8 -8 -62 137 -55 148 4 6 2 8 -4 4
-6 -3 -15 9 -22 31 -7 21 -16 43 -20 48 -6 9 -73 172 -76 185 0 3 -8 21 -17
41 -9 20 -17 42 -19 50 -2 8 -6 16 -9 19 -13 12 -39 92 -33 102 4 6 3 8 -3 5
-9 -5 -33 46 -32 67 0 5 -3 12 -8 15 -7 5 -31 62 -36 86 -1 6 -6 13 -10 16 -4
3 -9 16 -10 27 -1 12 -4 22 -7 22 -6 0 -31 53 -34 73 -1 6 -7 21 -12 32 -6 11
-21 46 -34 78 -23 59 -50 75 -66 40z"/>
<path d="M3597 4414 c-1 -1 -29 -4 -62 -7 -105 -11 -148 -19 -260 -48 -60 -16
-115 -30 -122 -32 -7 -2 -16 -6 -19 -10 -4 -4 -13 -7 -21 -7 -22 0 -143 -55
-245 -111 -36 -21 -69 -35 -72 -33 -3 2 -4 1 -1 -3 3 -3 -14 -18 -37 -32 -24
-14 -48 -30 -54 -35 -6 -6 -35 -31 -65 -56 -29 -25 -60 -53 -68 -62 -8 -9 -19
-14 -24 -11 -6 3 -7 2 -4 -4 3 -5 -7 -21 -22 -34 l-28 -24 43 -104 c24 -57 41
-107 38 -112 -3 -5 -1 -9 4 -9 12 0 34 -49 27 -61 -4 -5 -2 -9 3 -9 13 0 34
-59 25 -73 -3 -5 -2 -7 3 -4 6 3 15 -7 21 -24 9 -22 8 -28 0 -23 -7 3 -5 0 4
-8 13 -11 32 -47 29 -56 0 -1 7 -16 15 -32 9 -17 13 -36 9 -42 -4 -7 -3 -8 4
-4 7 4 12 3 12 -3 0 -6 7 -8 15 -5 8 3 14 9 13 12 -2 19 3 35 9 29 4 -4 12 6
19 23 8 17 21 30 31 30 12 0 14 3 6 8 -8 5 0 21 27 52 22 25 43 45 49 45 5 0
13 4 18 9 5 5 3 6 -4 2 -23 -13 -14 6 14 30 15 12 32 20 37 17 6 -3 8 -3 4 2
-4 4 -3 14 3 22 14 16 33 18 23 1 -5 -7 -3 -8 5 -4 7 5 10 11 7 14 -9 8 25 42
41 42 7 0 13 4 13 8 0 14 60 44 76 38 8 -3 13 -2 10 3 -3 5 0 14 8 20 11 9 15
9 19 -1 4 -8 6 -7 6 5 1 9 4 16 9 15 4 -1 17 3 30 10 12 7 22 10 22 7 0 -3 11
2 25 11 14 9 25 12 25 8 0 -5 4 -2 10 6 5 8 13 11 17 6 4 -4 -1 -15 -12 -23
-12 -9 -14 -14 -5 -11 8 2 19 14 25 26 8 18 44 32 97 36 3 1 10 4 14 8 4 4 14
2 22 -5 13 -9 14 -9 8 1 -4 7 -2 12 8 12 8 0 21 3 29 6 17 6 18 -11 2 -36 -8
-13 -6 -13 8 -2 9 8 15 19 14 24 -1 6 11 15 26 20 23 8 31 7 43 -8 13 -18 14
-18 8 -1 -4 10 -3 17 2 16 5 -1 11 0 14 1 4 2 122 9 185 11 6 0 30 -2 55 -5
25 -2 55 -5 68 -5 16 -1 21 -5 16 -13 -6 -10 -4 -10 7 -2 12 9 33 11 42 4 1
-1 16 -4 32 -6 17 -3 43 -9 59 -14 16 -6 40 -10 53 -10 16 0 22 -4 17 -12 -5
-7 -2 -9 8 -5 9 3 21 0 28 -6 10 -9 11 -9 5 3 -7 12 -6 13 7 3 8 -7 18 -10 21
-6 4 3 17 -2 29 -13 12 -10 18 -13 14 -7 -7 13 16 8 39 -7 6 -3 29 -12 53 -19
23 -6 42 -16 42 -22 0 -6 5 -7 10 -4 6 4 34 -7 64 -23 l53 -29 24 26 c13 13
18 21 12 17 -14 -8 -17 3 -7 28 3 9 11 13 17 9 6 -3 7 -1 3 5 -4 6 -1 30 5 52
9 29 17 39 27 35 13 -5 13 -3 1 11 -11 14 -11 18 -1 21 6 3 10 8 7 13 -7 11
15 70 27 70 5 0 7 4 4 9 -4 5 -1 22 5 38 6 15 10 28 9 28 0 0 9 27 20 59 11
33 20 63 20 67 0 10 -169 91 -225 109 -22 7 -44 15 -50 19 -5 3 -15 6 -22 7
-13 2 -79 22 -103 31 -8 3 -20 7 -26 8 -7 2 -45 11 -85 20 -41 10 -84 19 -96
20 -12 2 -34 6 -50 9 -61 12 -154 19 -296 21 -81 1 -148 1 -150 -1z"/>
<path d="M3739 3868 c-5 -18 -6 -38 -1 -34 7 8 12 36 6 36 -2 0 -4 -1 -5 -2z"/>
<path d="M3776 3854 c-5 -13 -4 -14 7 -6 8 7 17 9 20 5 4 -3 7 -1 7 5 0 18
-27 14 -34 -4z"/>
<path d="M3875 3851 c-3 -5 -2 -12 3 -15 5 -3 9 1 9 9 0 17 -3 19 -12 6z"/>
<path d="M3550 3836 c7 -7 13 -7 20 0 6 6 3 10 -10 10 -13 0 -16 -4 -10 -10z"/>
<path d="M3676 3838 c3 -5 10 -6 15 -3 13 9 11 12 -6 12 -8 0 -12 -4 -9 -9z"/>
<path d="M3967 3839 c7 -7 15 -10 18 -7 3 3 -2 9 -12 12 -14 6 -15 5 -6 -5z"/>
<path d="M4057 3833 c-10 -9 -9 -23 1 -23 5 0 9 7 9 15 0 17 -1 18 -10 8z"/>
<path d="M3350 3796 c7 -7 13 -7 20 0 6 6 3 10 -10 10 -13 0 -16 -4 -10 -10z"/>
<path d="M4096 3802 c-3 -5 1 -9 9 -9 8 0 12 4 9 9 -3 4 -7 8 -9 8 -2 0 -6 -4
-9 -8z"/>
<path d="M4266 3758 c3 -4 9 -8 15 -8 5 0 9 4 9 8 0 5 -7 9 -15 9 -8 0 -12 -4
-9 -9z"/>
<path d="M4376 3723 c-6 -14 -5 -15 5 -6 7 7 10 15 7 18 -3 3 -9 -2 -12 -12z"/>
<path d="M4415 3720 c-3 -5 -1 -10 4 -10 6 0 11 5 11 10 0 6 -2 10 -4 10 -3 0
-8 -4 -11 -10z"/>
<path d="M3099 3693 c-13 -16 -12 -17 4 -4 9 7 17 15 17 17 0 8 -8 3 -21 -13z"/>
<path d="M4450 3699 c0 -5 5 -7 10 -4 6 3 10 8 10 11 0 2 -4 4 -10 4 -5 0 -10
-5 -10 -11z"/>
<path d="M4490 3679 c0 -5 5 -7 10 -4 6 3 10 8 10 11 0 2 -4 4 -10 4 -5 0 -10
-5 -10 -11z"/>
<path d="M2653 3425 c0 -8 4 -12 9 -9 5 3 6 10 3 15 -9 13 -12 11 -12 -6z"/>
<path d="M2670 3386 c0 -2 7 -7 16 -10 8 -3 12 -2 9 4 -6 10 -25 14 -25 6z"/>
<path d="M2073 3252 c0 -12 5 -22 9 -22 11 0 10 12 -2 30 -7 12 -9 10 -7 -8z"/>
<path d="M1930 2921 c0 -6 4 -13 10 -16 6 -3 7 1 4 9 -7 18 -14 21 -14 7z"/>
<path d="M3710 2687 c-1 -23 -1 -124 -2 -224 0 -132 -4 -181 -12 -176 -6 3 -5
0 2 -8 6 -7 12 -25 12 -40 0 -25 3 -26 48 -26 71 0 84 -2 78 -11 -3 -5 1 -9 8
-9 8 0 12 6 10 12 -5 13 24 14 44 1 6 -4 12 -3 12 1 0 5 17 8 38 7 53 -3 54
-3 48 -12 -3 -5 1 -9 8 -9 8 0 12 6 10 12 -5 13 24 14 44 1 7 -4 12 -2 12 6 0
9 3 9 10 -2 5 -8 10 -10 10 -5 0 6 15 10 34 10 24 1 32 -3 26 -10 -6 -7 -2
-11 9 -11 10 0 17 5 14 12 -4 12 25 12 45 0 7 -4 12 -2 12 5 0 8 5 7 17 -2 9
-8 14 -9 11 -4 -7 12 38 13 49 1 13 -13 11 -326 -1 -319 -7 5 -7 2 0 -8 13
-17 13 -158 0 -178 -6 -10 -6 -12 2 -7 8 5 12 -1 12 -14 0 -12 -4 -19 -9 -16
-5 4 -11 3 -13 -2 -4 -11 -86 -48 -138 -62 -25 -7 -45 -11 -45 -10 0 1 -11 -3
-25 -8 -48 -18 -155 -27 -320 -26 -152 1 -185 4 -277 19 -18 3 -33 3 -33 0 0
-4 11 -31 25 -61 14 -30 25 -60 25 -67 0 -7 6 -19 12 -25 10 -10 10 -15 -2
-22 -13 -8 -12 -10 2 -10 18 0 35 -41 29 -69 -1 -7 2 -11 7 -8 11 7 35 -59 27
-73 -4 -6 -1 -9 7 -8 7 2 13 -4 13 -12 0 -8 2 -17 5 -20 13 -13 30 -63 24 -72
-5 -7 -2 -8 6 -3 10 6 12 4 7 -8 -4 -10 -2 -17 4 -17 6 0 8 -7 5 -16 -3 -8 -2
-12 4 -9 13 8 13 -17 0 -33 -7 -9 -7 -9 2 -2 7 6 15 4 23 -7 8 -11 27 -16 59
-16 32 1 49 -4 57 -15 9 -15 10 -15 5 1 -5 16 -1 18 29 14 22 -3 35 -1 35 7 0
6 5 4 10 -4 9 -13 10 -13 10 0 0 13 1 13 10 0 6 -10 10 -11 10 -2 0 6 5 12 11
12 5 0 7 -6 3 -12 -6 -10 -5 -10 7 -1 8 6 32 13 54 15 22 2 45 6 50 9 6 3 25
5 43 4 17 0 32 3 32 7 0 4 7 8 16 8 9 0 12 -5 8 -12 -4 -7 1 -5 12 4 10 9 30
18 44 20 14 2 30 6 35 9 6 4 18 5 28 4 9 -2 17 2 17 8 0 5 3 8 6 4 4 -3 21 0
39 8 19 7 36 11 39 8 3 -3 11 -1 18 4 7 6 31 16 53 23 22 7 45 17 51 22 7 5
26 10 43 11 17 1 31 5 31 8 0 3 24 16 53 29 28 13 64 31 78 41 14 10 28 16 31
13 3 -2 11 2 18 11 7 8 17 15 22 15 5 0 16 7 25 15 8 8 20 12 26 8 7 -3 9 -2
4 2 -4 5 3 19 15 32 l21 23 -1 652 c0 359 -1 665 -1 680 l-1 27 -565 0 -565 0
0 -42z"/>
<path d="M1789 2503 c-13 -16 -12 -17 4 -4 9 7 17 15 17 17 0 8 -8 3 -21 -13z"/>
<path d="M2393 2385 c0 -8 4 -12 9 -9 5 3 6 10 3 15 -9 13 -12 11 -12 -6z"/>
<path d="M3791 2187 c-13 -21 -12 -21 5 -5 10 10 16 20 13 22 -3 3 -11 -5 -18
-17z"/>
<path d="M3873 2185 c0 -8 4 -12 9 -9 5 3 6 10 3 15 -9 13 -12 11 -12 -6z"/>
<path d="M3930 2196 c0 -2 8 -10 18 -17 15 -13 16 -12 3 4 -13 16 -21 21 -21
13z"/>
<path d="M4256 2178 c3 -5 10 -6 15 -3 13 9 11 12 -6 12 -8 0 -12 -4 -9 -9z"/>
<path d="M4290 2179 c0 -5 5 -7 10 -4 6 3 10 8 10 11 0 2 -4 4 -10 4 -5 0 -10
-5 -10 -11z"/>
<path d="M2490 2160 c0 -5 5 -10 11 -10 5 0 7 5 4 10 -3 6 -8 10 -11 10 -2 0
-4 -4 -4 -10z"/>
<path d="M4295 2149 c-4 -6 -5 -12 -2 -15 2 -3 7 2 10 11 7 17 1 20 -8 4z"/>
<path d="M1473 1765 c0 -8 4 -12 9 -9 5 3 6 10 3 15 -9 13 -12 11 -12 -6z"/>
<path d="M1455 1660 c-3 -5 -1 -10 4 -10 6 0 11 5 11 10 0 6 -2 10 -4 10 -3 0
-8 -4 -11 -10z"/>
<path d="M1380 1460 c-9 -6 -10 -10 -3 -10 6 0 15 5 18 10 8 12 4 12 -15 0z"/>
<path d="M4519 1168 c-5 -18 -6 -38 -1 -34 7 8 12 36 6 36 -2 0 -4 -1 -5 -2z"/>
<path d="M4555 1140 c3 -5 8 -10 11 -10 2 0 4 5 4 10 0 6 -5 10 -11 10 -5 0
-7 -4 -4 -10z"/>
<path d="M4379 1093 c-13 -16 -12 -17 4 -4 16 13 21 21 13 21 -2 0 -10 -8 -17
-17z"/>
<path d="M4215 1051 c-3 -5 -2 -12 3 -15 5 -3 9 1 9 9 0 17 -3 19 -12 6z"/>
<path d="M4155 1029 c-4 -6 -5 -12 -2 -15 2 -3 7 2 10 11 7 17 1 20 -8 4z"/>
<path d="M3996 1022 c-3 -5 1 -9 9 -9 8 0 12 4 9 9 -3 4 -7 8 -9 8 -2 0 -6 -4
-9 -8z"/>
<path d="M4036 1022 c-3 -5 1 -9 9 -9 8 0 12 4 9 9 -3 4 -7 8 -9 8 -2 0 -6 -4
-9 -8z"/>
<path d="M4075 1020 c-3 -5 -1 -10 4 -10 6 0 11 5 11 10 0 6 -2 10 -4 10 -3 0
-8 -4 -11 -10z"/>
<path d="M756 1002 c-3 -4 4 -9 15 -9 23 -2 25 3 4 10 -8 4 -16 3 -19 -1z"/>
<path d="M915 1000 c-3 -5 -1 -10 4 -10 6 0 11 5 11 10 0 6 -2 10 -4 10 -3 0
-8 -4 -11 -10z"/>
<path d="M3276 1002 c-3 -4 4 -9 15 -9 23 -2 25 3 4 10 -8 4 -16 3 -19 -1z"/>
<path d="M3356 1002 c-3 -5 1 -9 9 -9 8 0 12 4 9 9 -3 4 -7 8 -9 8 -2 0 -6 -4
-9 -8z"/>
<path d="M3460 1000 c-9 -6 -10 -10 -3 -10 6 0 15 5 18 10 8 12 4 12 -15 0z"/>
<path d="M3490 999 c0 -5 5 -7 10 -4 6 3 10 8 10 11 0 2 -4 4 -10 4 -5 0 -10
-5 -10 -11z"/>
<path d="M3756 1002 c-3 -4 4 -9 15 -9 23 -2 25 3 4 10 -8 4 -16 3 -19 -1z"/>
<path d="M1030 996 c0 -2 8 -10 18 -17 15 -13 16 -12 3 4 -13 16 -21 21 -21
13z"/>
<path d="M720 980 c-9 -6 -10 -10 -3 -10 6 0 15 5 18 10 8 12 4 12 -15 0z"/>
<path d="M3186 982 c-2 -4 4 -8 14 -8 10 0 16 4 14 8 -3 4 -9 8 -14 8 -5 0
-11 -4 -14 -8z"/>
</g>
</svg>
